<mxfile host="app.diagrams.net" agent="Mozilla/5.0 (Windows NT 10.0; Win64; x64) AppleWebKit/537.36 (KHTML, like Gecko) Chrome/105.0.0.0 Safari/537.36 Edg/105.0.1343.42" version="24.7.5">
  <diagram id="R2lEEEUBdFMjLlhIrx00" name="Page-1">
    <mxGraphModel dx="768" dy="328" grid="1" gridSize="10" guides="1" tooltips="1" connect="1" arrows="1" fold="1" page="1" pageScale="1" pageWidth="850" pageHeight="1100" math="0" shadow="0" extFonts="Permanent Marker^https://fonts.googleapis.com/css?family=Permanent+Marker">
      <root>
        <mxCell id="0" />
        <mxCell id="1" parent="0" />
        <mxCell id="pVtF62LMRl7p8GnpMP4l-1" value="Cliente" style="rounded=0;whiteSpace=wrap;html=1;" vertex="1" parent="1">
          <mxGeometry x="130" y="180" width="120" height="60" as="geometry" />
        </mxCell>
        <mxCell id="pVtF62LMRl7p8GnpMP4l-2" value="" style="ellipse;whiteSpace=wrap;html=1;aspect=fixed;" vertex="1" parent="1">
          <mxGeometry x="150" y="158.98" width="10" height="10" as="geometry" />
        </mxCell>
        <mxCell id="pVtF62LMRl7p8GnpMP4l-3" value="" style="endArrow=none;html=1;rounded=0;exitX=0.208;exitY=0.017;exitDx=0;exitDy=0;entryX=0.5;entryY=1;entryDx=0;entryDy=0;exitPerimeter=0;" edge="1" parent="1" target="pVtF62LMRl7p8GnpMP4l-2">
          <mxGeometry width="50" height="50" relative="1" as="geometry">
            <mxPoint x="154.95999999999998" y="179.99999999999997" as="sourcePoint" />
            <mxPoint x="220" y="118.98" as="targetPoint" />
          </mxGeometry>
        </mxCell>
        <mxCell id="pVtF62LMRl7p8GnpMP4l-4" value="" style="ellipse;whiteSpace=wrap;html=1;aspect=fixed;fillColor=#000000;" vertex="1" parent="1">
          <mxGeometry x="185" y="159" width="10" height="10" as="geometry" />
        </mxCell>
        <mxCell id="pVtF62LMRl7p8GnpMP4l-5" value="" style="endArrow=none;html=1;rounded=0;exitX=0.208;exitY=0.017;exitDx=0;exitDy=0;entryX=0.5;entryY=1;entryDx=0;entryDy=0;exitPerimeter=0;" edge="1" parent="1" target="pVtF62LMRl7p8GnpMP4l-4">
          <mxGeometry width="50" height="50" relative="1" as="geometry">
            <mxPoint x="190" y="180" as="sourcePoint" />
            <mxPoint x="255" y="119" as="targetPoint" />
          </mxGeometry>
        </mxCell>
        <mxCell id="pVtF62LMRl7p8GnpMP4l-6" value="" style="ellipse;whiteSpace=wrap;html=1;aspect=fixed;" vertex="1" parent="1">
          <mxGeometry x="220" y="159" width="10" height="10" as="geometry" />
        </mxCell>
        <mxCell id="pVtF62LMRl7p8GnpMP4l-7" value="" style="endArrow=none;html=1;rounded=0;exitX=0.208;exitY=0.017;exitDx=0;exitDy=0;entryX=0.5;entryY=1;entryDx=0;entryDy=0;exitPerimeter=0;" edge="1" parent="1" target="pVtF62LMRl7p8GnpMP4l-6">
          <mxGeometry width="50" height="50" relative="1" as="geometry">
            <mxPoint x="225" y="180" as="sourcePoint" />
            <mxPoint x="290" y="119" as="targetPoint" />
          </mxGeometry>
        </mxCell>
        <mxCell id="pVtF62LMRl7p8GnpMP4l-8" value="Nome" style="text;html=1;align=center;verticalAlign=middle;resizable=0;points=[];autosize=1;strokeColor=none;fillColor=none;" vertex="1" parent="1">
          <mxGeometry x="100" y="138" width="60" height="30" as="geometry" />
        </mxCell>
        <mxCell id="pVtF62LMRl7p8GnpMP4l-9" value="Email" style="text;html=1;align=center;verticalAlign=middle;resizable=0;points=[];autosize=1;strokeColor=none;fillColor=none;" vertex="1" parent="1">
          <mxGeometry x="160" y="138" width="50" height="30" as="geometry" />
        </mxCell>
        <mxCell id="pVtF62LMRl7p8GnpMP4l-10" value="Telefone" style="text;html=1;align=center;verticalAlign=middle;resizable=0;points=[];autosize=1;strokeColor=none;fillColor=none;" vertex="1" parent="1">
          <mxGeometry x="205" y="138" width="70" height="30" as="geometry" />
        </mxCell>
        <mxCell id="pVtF62LMRl7p8GnpMP4l-14" value="" style="ellipse;whiteSpace=wrap;html=1;aspect=fixed;" vertex="1" parent="1">
          <mxGeometry x="380" y="168.95999999999998" width="10" height="10" as="geometry" />
        </mxCell>
        <mxCell id="pVtF62LMRl7p8GnpMP4l-15" value="" style="endArrow=none;html=1;rounded=0;exitX=0.208;exitY=0.017;exitDx=0;exitDy=0;entryX=0.5;entryY=1;entryDx=0;entryDy=0;exitPerimeter=0;" edge="1" parent="1" target="pVtF62LMRl7p8GnpMP4l-14">
          <mxGeometry width="50" height="50" relative="1" as="geometry">
            <mxPoint x="385" y="199.98" as="sourcePoint" />
            <mxPoint x="450" y="138.98" as="targetPoint" />
          </mxGeometry>
        </mxCell>
        <mxCell id="pVtF62LMRl7p8GnpMP4l-16" value="Data" style="text;html=1;align=center;verticalAlign=middle;resizable=0;points=[];autosize=1;strokeColor=none;fillColor=none;" vertex="1" parent="1">
          <mxGeometry x="355" y="147.98" width="50" height="30" as="geometry" />
        </mxCell>
        <mxCell id="pVtF62LMRl7p8GnpMP4l-17" value="" style="ellipse;whiteSpace=wrap;html=1;aspect=fixed;" vertex="1" parent="1">
          <mxGeometry x="405" y="138.98" width="10" height="10" as="geometry" />
        </mxCell>
        <mxCell id="pVtF62LMRl7p8GnpMP4l-18" value="" style="endArrow=none;html=1;rounded=0;exitX=0.208;exitY=0.017;exitDx=0;exitDy=0;entryX=0.5;entryY=1;entryDx=0;entryDy=0;exitPerimeter=0;" edge="1" parent="1" target="pVtF62LMRl7p8GnpMP4l-17">
          <mxGeometry width="50" height="50" relative="1" as="geometry">
            <mxPoint x="410" y="170" as="sourcePoint" />
            <mxPoint x="475" y="109" as="targetPoint" />
          </mxGeometry>
        </mxCell>
        <mxCell id="pVtF62LMRl7p8GnpMP4l-19" value="Valor" style="text;html=1;align=center;verticalAlign=middle;resizable=0;points=[];autosize=1;strokeColor=none;fillColor=none;" vertex="1" parent="1">
          <mxGeometry x="380" y="117.97999999999999" width="50" height="30" as="geometry" />
        </mxCell>
        <mxCell id="pVtF62LMRl7p8GnpMP4l-22" value="" style="ellipse;whiteSpace=wrap;html=1;aspect=fixed;fillColor=#000000;" vertex="1" parent="1">
          <mxGeometry x="430" y="168.98" width="10" height="10" as="geometry" />
        </mxCell>
        <mxCell id="pVtF62LMRl7p8GnpMP4l-23" value="" style="endArrow=none;html=1;rounded=0;exitX=0.208;exitY=0.017;exitDx=0;exitDy=0;entryX=0.5;entryY=1;entryDx=0;entryDy=0;exitPerimeter=0;" edge="1" parent="1" target="pVtF62LMRl7p8GnpMP4l-22">
          <mxGeometry width="50" height="50" relative="1" as="geometry">
            <mxPoint x="435" y="200" as="sourcePoint" />
            <mxPoint x="500" y="139" as="targetPoint" />
          </mxGeometry>
        </mxCell>
        <mxCell id="pVtF62LMRl7p8GnpMP4l-24" value="Codigo" style="text;html=1;align=center;verticalAlign=middle;resizable=0;points=[];autosize=1;strokeColor=none;fillColor=none;" vertex="1" parent="1">
          <mxGeometry x="405" y="147.98" width="60" height="30" as="geometry" />
        </mxCell>
        <mxCell id="pVtF62LMRl7p8GnpMP4l-25" value="Produto" style="rounded=0;whiteSpace=wrap;html=1;" vertex="1" parent="1">
          <mxGeometry x="570" y="180" width="120" height="60" as="geometry" />
        </mxCell>
        <mxCell id="pVtF62LMRl7p8GnpMP4l-26" value="" style="ellipse;whiteSpace=wrap;html=1;aspect=fixed;fillColor=#000000;" vertex="1" parent="1">
          <mxGeometry x="580" y="159" width="10" height="10" as="geometry" />
        </mxCell>
        <mxCell id="pVtF62LMRl7p8GnpMP4l-27" value="" style="endArrow=none;html=1;rounded=0;exitX=0.208;exitY=0.017;exitDx=0;exitDy=0;entryX=0.5;entryY=1;entryDx=0;entryDy=0;exitPerimeter=0;" edge="1" parent="1" target="pVtF62LMRl7p8GnpMP4l-26">
          <mxGeometry width="50" height="50" relative="1" as="geometry">
            <mxPoint x="585" y="180" as="sourcePoint" />
            <mxPoint x="650" y="119" as="targetPoint" />
          </mxGeometry>
        </mxCell>
        <mxCell id="pVtF62LMRl7p8GnpMP4l-28" value="Nome" style="text;html=1;align=center;verticalAlign=middle;resizable=0;points=[];autosize=1;strokeColor=none;fillColor=none;" vertex="1" parent="1">
          <mxGeometry x="550" y="138" width="60" height="30" as="geometry" />
        </mxCell>
        <mxCell id="pVtF62LMRl7p8GnpMP4l-29" value="" style="ellipse;whiteSpace=wrap;html=1;aspect=fixed;" vertex="1" parent="1">
          <mxGeometry x="625" y="158.98000000000002" width="10" height="10" as="geometry" />
        </mxCell>
        <mxCell id="pVtF62LMRl7p8GnpMP4l-30" value="" style="endArrow=none;html=1;rounded=0;exitX=0.208;exitY=0.017;exitDx=0;exitDy=0;entryX=0.5;entryY=1;entryDx=0;entryDy=0;exitPerimeter=0;" edge="1" parent="1" target="pVtF62LMRl7p8GnpMP4l-29">
          <mxGeometry width="50" height="50" relative="1" as="geometry">
            <mxPoint x="630" y="179.98000000000002" as="sourcePoint" />
            <mxPoint x="695" y="118.98" as="targetPoint" />
          </mxGeometry>
        </mxCell>
        <mxCell id="pVtF62LMRl7p8GnpMP4l-31" value="Valor" style="text;html=1;align=center;verticalAlign=middle;resizable=0;points=[];autosize=1;strokeColor=none;fillColor=none;" vertex="1" parent="1">
          <mxGeometry x="600" y="138" width="50" height="30" as="geometry" />
        </mxCell>
        <mxCell id="pVtF62LMRl7p8GnpMP4l-32" value="" style="ellipse;whiteSpace=wrap;html=1;aspect=fixed;" vertex="1" parent="1">
          <mxGeometry x="660" y="159" width="10" height="10" as="geometry" />
        </mxCell>
        <mxCell id="pVtF62LMRl7p8GnpMP4l-33" value="" style="endArrow=none;html=1;rounded=0;exitX=0.208;exitY=0.017;exitDx=0;exitDy=0;entryX=0.5;entryY=1;entryDx=0;entryDy=0;exitPerimeter=0;" edge="1" parent="1" target="pVtF62LMRl7p8GnpMP4l-32">
          <mxGeometry width="50" height="50" relative="1" as="geometry">
            <mxPoint x="665" y="180" as="sourcePoint" />
            <mxPoint x="730" y="119" as="targetPoint" />
          </mxGeometry>
        </mxCell>
        <mxCell id="pVtF62LMRl7p8GnpMP4l-34" value="Validade" style="text;html=1;align=center;verticalAlign=middle;resizable=0;points=[];autosize=1;strokeColor=none;fillColor=none;" vertex="1" parent="1">
          <mxGeometry x="635" y="139" width="70" height="30" as="geometry" />
        </mxCell>
        <mxCell id="pVtF62LMRl7p8GnpMP4l-35" value="" style="endArrow=none;html=1;rounded=0;exitX=1;exitY=0.5;exitDx=0;exitDy=0;entryX=0;entryY=0.5;entryDx=0;entryDy=0;" edge="1" parent="1" source="pVtF62LMRl7p8GnpMP4l-1">
          <mxGeometry width="50" height="50" relative="1" as="geometry">
            <mxPoint x="420" y="250" as="sourcePoint" />
            <mxPoint x="370" y="210" as="targetPoint" />
          </mxGeometry>
        </mxCell>
        <mxCell id="pVtF62LMRl7p8GnpMP4l-36" value="" style="endArrow=none;html=1;rounded=0;exitX=1;exitY=0.5;exitDx=0;exitDy=0;entryX=0;entryY=0.5;entryDx=0;entryDy=0;" edge="1" parent="1">
          <mxGeometry width="50" height="50" relative="1" as="geometry">
            <mxPoint x="450" y="210" as="sourcePoint" />
            <mxPoint x="570" y="210" as="targetPoint" />
            <Array as="points">
              <mxPoint x="510" y="210" />
            </Array>
          </mxGeometry>
        </mxCell>
        <mxCell id="pVtF62LMRl7p8GnpMP4l-41" value="Pedido" style="rhombus;whiteSpace=wrap;html=1;" vertex="1" parent="1">
          <mxGeometry x="370" y="170" width="80" height="80" as="geometry" />
        </mxCell>
        <mxCell id="pVtF62LMRl7p8GnpMP4l-42" value="n" style="text;html=1;align=center;verticalAlign=middle;resizable=0;points=[];autosize=1;strokeColor=none;fillColor=none;" vertex="1" parent="1">
          <mxGeometry x="255" y="208" width="30" height="30" as="geometry" />
        </mxCell>
        <mxCell id="pVtF62LMRl7p8GnpMP4l-43" value="n" style="text;html=1;align=center;verticalAlign=middle;resizable=0;points=[];autosize=1;strokeColor=none;fillColor=none;" vertex="1" parent="1">
          <mxGeometry x="530" y="210" width="30" height="30" as="geometry" />
        </mxCell>
      </root>
    </mxGraphModel>
  </diagram>
</mxfile>
